<?xml version="1.0" encoding="UTF-8" standalone="no"?>
<svg
   xmlns:dc="http://purl.org/dc/elements/1.1/"
   xmlns:cc="http://creativecommons.org/ns#"
   xmlns:rdf="http://www.w3.org/1999/02/22-rdf-syntax-ns#"
   xmlns:svg="http://www.w3.org/2000/svg"
   xmlns="http://www.w3.org/2000/svg"
   xmlns:sodipodi="http://sodipodi.sourceforge.net/DTD/sodipodi-0.dtd"
   xmlns:inkscape="http://www.inkscape.org/namespaces/inkscape"
   viewBox="0 -47 512.00203 512"
   version="1.1"
   id="svg4562"
   sodipodi:docname="twitter.svg"
   inkscape:version="0.92.5 (2060ec1f9f, 2020-04-08)">
  <metadata
     id="metadata4568">
    <rdf:RDF>
      <cc:Work
         rdf:about="">
        <dc:format>image/svg+xml</dc:format>
        <dc:type
           rdf:resource="http://purl.org/dc/dcmitype/StillImage" />
        <dc:title></dc:title>
      </cc:Work>
    </rdf:RDF>
  </metadata>
  <defs
     id="defs4566" />
  <sodipodi:namedview
     pagecolor="#ffffff"
     bordercolor="#666666"
     borderopacity="1"
     objecttolerance="10"
     gridtolerance="10"
     guidetolerance="10"
     inkscape:pageopacity="0"
     inkscape:pageshadow="2"
     inkscape:window-width="1920"
     inkscape:window-height="1051"
     id="namedview4564"
     showgrid="false"
     inkscape:zoom="1.3037281"
     inkscape:cx="217.80392"
     inkscape:cy="216.6424"
     inkscape:window-x="-9"
     inkscape:window-y="-9"
     inkscape:window-maximized="1"
     inkscape:current-layer="svg4562" />
  <path
     d="m 209.40159,385.2936 c -18.49319,0 -37.528,-1.4976 -56.677,-4.49932 -33.72691,-5.29215 -67.868192,-22.93377 -77.529156,-28.21614 l -25.338413,-13.85358 27.43309,-9.02147 C 107.27792,319.8431 125.51989,313.72547 148.10129,304.14607 125.49052,293.19633 108.06424,273.49919 99.675747,248.03679 l -6.381912,-19.37413 5.233428,0.79937 C 93.564642,224.46026 89.646095,219.38344 86.608486,214.76667 75.805566,198.35837 70.085989,178.30884 71.302989,161.12728 l 1.200687,-16.91077 10.124272,3.92181 c -4.270922,-8.06548 -7.357471,-16.67911 -9.171552,-25.70709 -4.421009,-22.01696 -0.721065,-45.407514 10.42118,-65.86161 l 8.819177,-16.1897 11.794797,14.166804 c 37.30287,44.810423 84.55057,71.391936 140.62722,79.173566 -2.29044,-15.78838 -0.57424,-31.02536 5.10618,-44.683177 6.61357,-15.902579 18.37899,-29.38747 34.01403,-38.999492 17.36428,-10.672411 38.42199,-15.84385 59.29371,-14.561594 22.14419,1.360562 42.24918,9.657701 58.21701,24.010479 7.79794,-2.026159 13.54362,-4.189353 21.30894,-7.112764 4.67224,-1.758616 9.97092,-3.755411 16.6008,-6.039327 l 24.43137,-8.417861 -15.93194,45.502125 c 1.0506,-0.08809 2.13383,-0.163136 3.266,-0.212076 l 26.08885,-1.181111 -15.41971,21.074018 c -0.8842,1.20721 -1.10932,1.54979 -1.42254,2.02289 -1.24311,1.87281 -2.78965,4.20241 -23.95502,32.46423 -5.29868,7.07688 -7.94476,16.2941 -7.45209,25.95834 1.87608,36.72536 -2.62976,69.95307 -13.40006,98.7565 -10.18626,27.25039 -25.97138,50.63115 -46.91163,69.49303 -25.91265,23.3351 -58.95438,39.31272 -98.21163,47.48262 -19.25668,4.00663 -39.93589,6.01648 -61.33945,6.01648 z m 0,0"
     id="path4560"
     inkscape:connector-curvature="0"
     style="stroke-width:0.83526057;fill:#333333;fill-opacity:1" />
</svg>
